<svg width="126" height="24" viewBox="0 0 126 24" fill="none" xmlns="http://www.w3.org/2000/svg">
<path fill-rule="evenodd" clip-rule="evenodd" d="M2.57386 23.747H7.67449V11.8951H11.0778L11.5285 7.81145H7.67449L7.68091 5.76738C7.68091 4.70225 7.78586 4.13135 9.37762 4.13135H11.5052V0.0465679H8.10129C4.01286 0.0465679 2.57445 2.02739 2.57445 5.35935V7.81201H0.0252962V11.8957H2.57386V23.747ZM48.2988 11.2593C46.5665 11.2593 46.1712 12.1722 46.1712 13.3028V13.9381H50.424V13.3028C50.424 12.1722 50.0287 11.2593 48.2988 11.2593ZM64.8799 11.6712C63.8397 11.6712 63.0899 11.9987 62.3296 12.3322V19.8805C63.0578 19.9471 63.4753 19.9471 64.1662 19.9471C66.6629 19.9471 67.0052 18.8495 67.0052 17.317V13.7119C67.0052 12.5802 66.6139 11.6712 64.8799 11.6712ZM17.5877 20.4749C16.6175 20.4749 16.1779 20.0104 16.1779 19.116C16.1779 18.2165 16.6513 18.024 17.7288 18.024H20.0045V19.8145C19.931 19.8469 19.8588 19.8792 19.7875 19.9111C19.1216 20.2092 18.5278 20.4749 17.5877 20.4749ZM81.0092 11.6712C79.274 11.6712 78.6728 12.5802 78.6728 13.7119V17.842C78.6728 18.9766 79.274 19.8884 81.0092 19.8884C82.7397 19.8884 83.3455 18.9766 83.3455 17.842V13.7119C83.3449 12.5802 82.7391 11.6712 81.0092 11.6712ZM25.1063 23.7778H20.8552L20.6715 22.7457C18.7305 23.7778 16.9982 23.9451 15.8554 23.9451C12.7378 23.9451 11.0784 21.9459 11.0784 19.1809C11.0784 15.9189 13.0148 14.7547 16.4787 14.7547H20.0045V14.0494C20.0045 12.3843 19.8057 11.8957 17.1382 11.8957H12.7769L13.2031 7.81201H17.9702C23.823 7.81201 25.1063 9.58686 25.1063 14.0825V23.7778ZM34.8843 11.6639C36.1571 11.6639 36.9168 11.7597 39.5622 12.1951V8.21388C37.2451 7.71294 35.7355 7.58141 34.4598 7.58141C28.9837 7.58141 26.8071 10.3509 26.8071 14.3478V17.2085C26.8071 21.202 28.9837 23.9664 34.4598 23.9664C35.7355 23.9664 37.2451 23.8354 39.5622 23.3367V19.3533C36.9168 19.7904 36.1571 19.8878 34.8843 19.8878C32.5981 19.8878 31.9071 19.4014 31.9071 17.5376V14.0119C31.9071 12.1481 32.5981 11.6639 34.8843 11.6639ZM55.5241 17.2085H46.1706V17.5376C46.1706 19.4014 46.8621 19.8878 49.1477 19.8878C51.2024 19.8878 52.4566 19.7904 55.0973 19.3533V23.3367C52.5505 23.8354 51.2234 23.9664 48.725 23.9664C43.2483 23.9664 41.0706 21.202 41.0706 17.2085V13.9375C41.0706 10.4432 42.6862 7.58141 48.2982 7.58141C53.9102 7.58141 55.5241 10.4102 55.5241 13.9375V17.2085ZM63.9936 23.9591C70.9554 23.9591 72.1046 21.1438 72.1046 17.284H72.104V13.3033C72.104 9.7766 71.2545 7.58197 66.1551 7.58197C64.8572 7.58197 63.431 7.78179 62.329 8.1747V0.456837L57.2301 1.27346V23.3373C60.0049 23.747 61.4795 23.9591 63.9936 23.9591ZM88.4496 17.368C88.4496 20.6977 87.0176 23.9272 81.0261 23.9272C75.0316 23.9272 73.5728 20.6977 73.5728 17.368V14.153C73.5728 10.8216 75.0316 7.59149 81.0261 7.59149C87.0176 7.59149 88.4496 10.8216 88.4496 14.153V17.368ZM97.3594 23.9272C103.35 23.9272 104.784 20.6977 104.784 17.368V14.153C104.784 10.8216 103.35 7.59149 97.3594 7.59149C91.3649 7.59149 89.9061 10.8216 89.9061 14.153V17.368C89.9061 20.6977 91.3649 23.9272 97.3594 23.9272ZM121.546 23.747H116.019L111.345 16.2564V23.747H106.244V1.2729L111.345 0.456278V14.9243L116.019 7.81201H121.546L116.443 15.5735L121.546 23.747ZM95.0085 13.7119C95.0085 12.5802 95.6096 11.6712 97.3419 11.6712C99.0719 11.6712 99.6841 12.5802 99.6841 13.7119V17.842C99.6841 18.9766 99.0719 19.8884 97.3419 19.8884C95.6096 19.8884 95.0085 18.9766 95.0085 17.842V13.7119ZM124.457 20.9518C125.316 20.9518 126 21.624 126 22.4636C126 23.316 125.315 23.981 124.451 23.981C123.59 23.981 122.892 23.316 122.892 22.4636C122.892 21.624 123.59 20.9518 124.451 20.9518H124.457ZM123.193 22.4636C123.193 21.7584 123.759 21.1869 124.451 21.1869H124.457C125.156 21.1869 125.714 21.7589 125.714 22.4703C125.714 23.1817 125.156 23.7526 124.457 23.7459C123.759 23.7459 123.193 23.1817 123.193 22.4636ZM124.158 23.3435H123.878V21.6565L123.891 21.6546C124.033 21.6357 124.171 21.6173 124.374 21.6173C124.64 21.6173 124.814 21.671 124.921 21.7444C125.024 21.8188 125.079 21.9324 125.079 22.0931C125.079 22.3158 124.927 22.4496 124.738 22.5039V22.5168C124.892 22.5442 124.996 22.6774 125.032 22.9254C125.072 23.1879 125.115 23.288 125.142 23.3429H124.849C124.808 23.288 124.765 23.1341 124.73 22.9119C124.689 22.6975 124.576 22.617 124.352 22.617H124.158V23.3435H124.158ZM124.36 22.4099H124.158V21.8378C124.205 21.8317 124.269 21.825 124.36 21.825C124.675 21.825 124.785 21.9722 124.785 22.1199C124.785 22.3287 124.59 22.4099 124.36 22.4099Z" fill="white"/>
</svg>
	
